<svg width="59" height="65" viewBox="0 0 59 65" fill="none" xmlns="http://www.w3.org/2000/svg">
<g id="Group">
<path id="Vector" d="M40.4478 1.62109H14.3899C10.4571 1.62109 7.25684 4.8055 7.25684 8.71947V56.1765C7.25684 60.0905 10.4571 63.2749 14.3899 63.2749H50.0032C53.936 63.2749 57.1362 60.0905 57.1362 56.1765V18.2986C51.867 13.0086 44.8274 5.95308 40.4478 1.62109Z" fill="white"/>
<path id="Vector_2" opacity="0.06" d="M7.25684 12.2305V54.9324C7.25684 55.0271 7.25943 55.144 7.26333 55.2478C7.30359 56.4525 7.22307 57.6988 7.71532 58.771C8.04391 59.485 8.46343 60.1445 8.96217 60.7287C9.70509 61.5984 10.6233 62.2943 11.6195 62.7434L11.9702 62.8564C12.6417 63.1575 13.369 63.2134 14.0977 63.2718C14.3535 63.2926 14.6107 63.277 14.8665 63.277L17.7174 63.2783L17.7876 63.277H49.4161C49.4862 63.277 49.5499 63.277 49.6083 63.2757C50.3383 63.2549 51.0838 63.251 51.7864 63.0537C52.9969 62.7149 53.9658 62.158 54.823 61.4089C55.4101 60.8961 55.9465 60.1536 56.3245 59.4695C56.6427 58.8918 57.2635 57.6339 57.1375 54.8986C19.6384 62.3267 11.5377 27.332 7.25684 12.2305Z" fill="#232528"/>
<g id="Group_2">
<path id="Vector_3" d="M7.25632 16.684V8.72108C7.25632 4.80711 10.4566 1.62271 14.3894 1.62271H39.8914H40.4473C40.7876 1.95893 41.1448 2.31333 41.515 2.68071V2.64047L56.359 17.4785H56.3149C56.5915 17.7563 56.8656 18.0315 57.1344 18.3016V19.1012V22.4674H58.7579V19.1012V17.6317L58.5215 17.3941C53.1315 11.9821 45.7776 4.61109 41.3513 0.234968L41.1149 0H39.8927H14.3894C9.5604 0 5.63281 3.91267 5.63281 8.72108V16.684H7.25632Z" fill="#E54151"/>
<path id="Vector_4" d="M57.1357 29.2188V56.1856C57.1357 60.0995 53.9354 63.2839 50.0027 63.2839H14.3894C10.4566 63.2839 7.25632 60.0995 7.25632 56.1856V55.8844H5.63281V56.1856C5.63281 60.9953 9.5617 64.9067 14.3894 64.9067H50.0027C54.8316 64.9067 58.7592 60.994 58.7592 56.1856V29.2188H57.1357Z" fill="#E54151"/>
<path id="Vector_5" d="M58.7602 24.5625H57.1367V27.1212H58.7602V24.5625Z" fill="#E54151"/>
</g>
<path id="Vector_6" d="M56.3168 17.4715H56.361L41.5156 2.63477V2.67501C45.6692 6.79539 51.5775 12.715 56.3168 17.4715Z" fill="#161719"/>
<g id="Group_3">
<path id="Vector_7" opacity="0.2" d="M40.8604 1.96094L41.0084 12.2216C41.0084 17.3118 44.6503 20.33 49.6987 20.33H57.1357V18.1698L40.8604 1.96094Z" fill="#0C0C0C"/>
<g id="Group_4">
<path id="Vector_8" d="M41.5146 2.63477V9.71497C41.5146 13.9924 44.9967 17.4728 49.2763 17.4728H56.36L41.5146 2.63477Z" fill="#E6EAED"/>
<path id="Vector_9" d="M58.5227 17.3941C53.1326 11.9821 45.7788 4.61109 41.3524 0.234968L41.1148 0H39.8926V1.62271V9.72067C39.8926 14.8926 44.102 19.1012 49.2778 19.1012H57.1368H58.7603V17.6317L58.5227 17.3941ZM49.2765 17.4772C44.9969 17.4772 41.5148 13.9968 41.5148 9.71937V2.68071V2.64047L56.3589 17.4785H56.3147H49.2765V17.4772Z" fill="#E54151"/>
</g>
</g>
<path id="Vector_10" d="M7.30124 41.4385H5.67773V53.5698H7.30124V41.4385Z" fill="#E54151"/>
<path id="Vector_11" d="M7.30124 19.2598H5.67773V21.8185H7.30124V19.2598Z" fill="#E54151"/>
<g id="Group_5">
<path id="Vector_12" opacity="0.2" d="M36.3978 41.3022H2.87816C1.28842 41.3022 0 40.0145 0 38.4255V28.2635C0 26.6745 0.405228 25.3867 2.87816 25.3867H36.3978C37.9875 25.3867 39.2759 26.6745 39.2759 28.2635V38.4255C39.2759 40.0145 37.9875 41.3022 36.3978 41.3022Z" fill="#0C0C0C"/>
<path id="Vector_13" d="M39.2017 40.0555H4.23265C2.64291 40.0555 1.35449 38.7677 1.35449 37.1788V26.5818C1.35449 24.9929 2.64291 23.7051 4.23265 23.7051H39.2004C40.7902 23.7051 42.0786 24.9929 42.0786 26.5818V37.1788C42.0799 38.7664 40.7915 40.0555 39.2017 40.0555Z" fill="#E54151"/>
<g id="Group_6">
<g id="Group_7" opacity="0.25">
<path id="Vector_14" d="M17.1421 30.6833C17.1421 31.1987 17.0603 31.6557 16.898 32.0529C16.7356 32.4501 16.4979 32.7851 16.1862 33.0564C15.8745 33.329 15.4927 33.5354 15.0394 33.6769C14.5861 33.8184 14.0536 33.8898 13.4405 33.8898H12.6639V36.8198C12.6639 36.8665 12.6483 36.9093 12.6171 36.947C12.5859 36.9846 12.534 37.0158 12.4625 37.0391C12.3911 37.0625 12.295 37.082 12.1755 37.0963C12.056 37.1105 11.9028 37.117 11.7157 37.117C11.5339 37.117 11.3819 37.1105 11.2598 37.0963C11.1378 37.082 11.0403 37.0638 10.9689 37.0391C10.8975 37.0158 10.8468 36.9846 10.8183 36.947C10.7897 36.9093 10.7754 36.8665 10.7754 36.8198V28.5634C10.7754 28.3414 10.8338 28.174 10.952 28.0636C11.0689 27.952 11.2235 27.8975 11.4157 27.8975H13.6081C13.8289 27.8975 14.038 27.9053 14.2367 27.9221C14.4354 27.939 14.6744 27.9741 14.9524 28.0286C15.2303 28.0831 15.5121 28.1831 15.7966 28.3298C16.081 28.4764 16.3252 28.6621 16.5265 28.8867C16.7278 29.1112 16.8811 29.3735 16.9863 29.6747C17.0889 29.9732 17.1421 30.3095 17.1421 30.6833ZM15.1654 30.8183C15.1654 30.4964 15.1082 30.2316 14.9926 30.0239C14.877 29.8162 14.7368 29.6617 14.5679 29.563C14.4004 29.4643 14.2237 29.4007 14.0393 29.3748C13.8549 29.3488 13.6639 29.3358 13.4678 29.3358H12.6626V32.4501H13.5107C13.812 32.4501 14.0653 32.4099 14.2692 32.3294C14.4731 32.2489 14.6393 32.1373 14.7692 31.9919C14.8991 31.8478 14.9965 31.6751 15.0641 31.4739C15.1316 31.2727 15.1654 31.0546 15.1654 30.8183Z" fill="#0C0C0C"/>
<path id="Vector_15" d="M26.335 32.3492C26.335 33.1904 26.2233 33.9109 26.0012 34.5093C25.7791 35.1078 25.4583 35.5959 25.0414 35.9737C24.6245 36.3514 24.1179 36.6292 23.5218 36.8071C22.9256 36.9849 22.2152 37.0732 21.3904 37.0732H19.1695C19.011 37.0732 18.8786 37.0265 18.7707 36.9343C18.6629 36.8421 18.6084 36.6916 18.6084 36.4838V28.4819C18.6084 28.2742 18.6616 28.1237 18.7707 28.0315C18.8786 27.9393 19.011 27.8926 19.1695 27.8926H21.5554C22.384 27.8926 23.088 27.9886 23.6647 28.1795C24.2426 28.3716 24.7284 28.6546 25.1232 29.0311C25.5181 29.4075 25.8194 29.871 26.0259 30.4253C26.2324 30.9796 26.335 31.6209 26.335 32.3492ZM24.3803 32.4128C24.3803 31.9779 24.3283 31.5729 24.2257 31.2003C24.1231 30.8264 23.9569 30.5032 23.7296 30.228C23.5023 29.9541 23.2101 29.7399 22.8529 29.5867C22.4957 29.4335 22.0269 29.3556 21.4476 29.3556H20.4917V35.5985H21.4762C21.9931 35.5985 22.4295 35.5323 22.7841 35.3999C23.1386 35.2675 23.4348 35.0675 23.6711 34.8001C23.9088 34.5327 24.0855 34.2004 24.2024 33.8031C24.3206 33.4059 24.3803 32.9424 24.3803 32.4128Z" fill="#0C0C0C"/>
<path id="Vector_16" d="M33.106 28.6598C33.106 28.8013 33.0995 28.9207 33.0878 29.0181C33.0761 29.1155 33.0566 29.192 33.0307 29.2492C33.0047 29.3063 32.9748 29.3478 32.941 29.3764C32.9073 29.4049 32.8696 29.4192 32.8254 29.4192H29.7849V31.8883H32.6384C32.6813 31.8883 32.7202 31.9 32.754 31.9234C32.7878 31.9468 32.8176 31.987 32.8436 32.0441C32.8696 32.1012 32.8891 32.1765 32.9008 32.2713C32.9125 32.3661 32.919 32.4842 32.919 32.6257C32.919 32.7672 32.9125 32.8853 32.9008 32.9801C32.8891 33.0749 32.8696 33.1528 32.8436 33.2138C32.8176 33.2748 32.7878 33.3189 32.754 33.3449C32.7202 33.3708 32.6826 33.3838 32.6384 33.3838H29.7849V36.8032C29.7849 36.8551 29.7706 36.9006 29.7421 36.9382C29.7135 36.9759 29.6615 37.0083 29.5875 37.0343C29.5135 37.0602 29.4161 37.0797 29.2966 37.094C29.1771 37.1083 29.0238 37.1148 28.8368 37.1148C28.655 37.1148 28.503 37.1083 28.3809 37.094C28.2588 37.0797 28.1614 37.0602 28.09 37.0343C28.0186 37.0083 27.9666 36.9759 27.9354 36.9382C27.9043 36.9006 27.8887 36.8551 27.8887 36.8032V28.4819C27.8887 28.2742 27.9419 28.1237 28.051 28.0315C28.1588 27.9393 28.2913 27.8926 28.4498 27.8926H32.8267C32.8696 27.8926 32.9086 27.9056 32.9423 27.9315C32.9761 27.9575 33.006 28.0003 33.0319 28.0587C33.0579 28.1185 33.0774 28.1976 33.0891 28.2963C33.0995 28.3963 33.106 28.517 33.106 28.6598Z" fill="#0C0C0C"/>
</g>
<g id="Group_8">
<path id="Vector_17" d="M17.73 29.9798C17.73 30.5016 17.6482 30.9638 17.4859 31.3662C17.3235 31.7686 17.0858 32.1075 16.7741 32.3827C16.4624 32.6579 16.0805 32.8682 15.6273 33.011C15.174 33.1551 14.6415 33.2265 14.0284 33.2265H13.2517V36.1941C13.2517 36.2421 13.2362 36.285 13.205 36.3239C13.1738 36.3628 13.1219 36.394 13.0504 36.4174C12.979 36.442 12.8829 36.4602 12.7634 36.4745C12.6439 36.4888 12.4906 36.4966 12.3036 36.4966C12.1218 36.4966 11.9698 36.4888 11.8477 36.4745C11.7256 36.4602 11.6282 36.4407 11.5568 36.4174C11.4854 36.394 11.4347 36.3628 11.4061 36.3239C11.3776 36.285 11.3633 36.2421 11.3633 36.1941V27.8313C11.3633 27.6067 11.4217 27.438 11.5399 27.325C11.6568 27.2121 11.8114 27.1562 12.0036 27.1562H14.196C14.4168 27.1562 14.6259 27.1653 14.8246 27.1809C15.0233 27.1978 15.2623 27.2341 15.5402 27.2887C15.8182 27.3432 16.1 27.4457 16.3845 27.5937C16.6689 27.7417 16.9131 27.93 17.1144 28.1571C17.3157 28.3843 17.469 28.6504 17.5742 28.9542C17.6768 29.2593 17.73 29.6007 17.73 29.9798ZM15.7532 30.1161C15.7532 29.7902 15.6961 29.5228 15.5805 29.3112C15.4649 29.1009 15.3246 28.9451 15.1558 28.8439C14.9883 28.7439 14.8116 28.6803 14.6272 28.653C14.4428 28.6271 14.2518 28.6141 14.0557 28.6141H13.2504V31.7673H14.0986C14.3999 31.7673 14.6532 31.7271 14.8571 31.6453C15.061 31.5635 15.2272 31.4506 15.3571 31.3039C15.487 31.1585 15.5844 30.9832 15.6519 30.7794C15.7195 30.5769 15.7532 30.3549 15.7532 30.1161Z" fill="white"/>
<path id="Vector_18" d="M26.9229 31.6661C26.9229 32.519 26.8112 33.2472 26.5891 33.8535C26.367 34.4597 26.0462 34.9543 25.6293 35.3373C25.2124 35.7203 24.7058 36.002 24.1097 36.1811C23.5135 36.3603 22.8031 36.4511 21.9783 36.4511H19.7574C19.5989 36.4511 19.4664 36.4044 19.3586 36.3109C19.2508 36.2175 19.1963 36.0656 19.1963 35.8553V27.7521C19.1963 27.5418 19.2508 27.3899 19.3586 27.2965C19.4664 27.203 19.5989 27.1562 19.7574 27.1562H22.1433C22.9719 27.1562 23.6759 27.2536 24.2525 27.447C24.8305 27.6405 25.3163 27.9287 25.7111 28.309C26.1059 28.6894 26.4073 29.1606 26.6138 29.7201C26.8203 30.2796 26.9229 30.9287 26.9229 31.6661ZM24.9682 31.731C24.9682 31.2909 24.9162 30.8807 24.8136 30.5029C24.711 30.1252 24.5448 29.7967 24.3175 29.5189C24.0902 29.2411 23.798 29.0243 23.4408 28.8685C23.0836 28.7128 22.6147 28.6349 22.0355 28.6349H21.0796V34.9569H22.0641C22.581 34.9569 23.0174 34.8894 23.372 34.7557C23.7265 34.622 24.0227 34.4195 24.259 34.1482C24.4967 33.8782 24.6734 33.5406 24.7902 33.1382C24.9084 32.7371 24.9682 32.2671 24.9682 31.731Z" fill="white"/>
<path id="Vector_19" d="M33.6939 27.9313C33.6939 28.0754 33.6874 28.1961 33.6757 28.2934C33.664 28.3921 33.6445 28.47 33.6185 28.5271C33.5926 28.5842 33.5627 28.6271 33.5289 28.6569C33.4952 28.6855 33.4575 28.6998 33.4133 28.6998H30.3728V31.2H33.2263C33.2692 31.2 33.3081 31.2117 33.3419 31.2364C33.3757 31.2611 33.4055 31.3013 33.4315 31.3584C33.4575 31.4155 33.477 31.4921 33.4887 31.5882C33.5003 31.6843 33.5068 31.8037 33.5068 31.9478C33.5068 32.0919 33.5003 32.2113 33.4887 32.3074C33.477 32.4034 33.4575 32.4826 33.4315 32.5449C33.4055 32.6073 33.3757 32.6514 33.3419 32.6774C33.3081 32.7033 33.2705 32.7163 33.2263 32.7163H30.3728V36.1785C30.3728 36.2317 30.3585 36.2772 30.33 36.3148C30.3014 36.3538 30.2494 36.3849 30.1754 36.4122C30.1014 36.4381 30.004 36.4589 29.8845 36.4732C29.765 36.4875 29.6117 36.4953 29.4247 36.4953C29.2429 36.4953 29.0909 36.4875 28.9688 36.4732C28.8467 36.4589 28.7493 36.4381 28.6779 36.4122C28.6064 36.3862 28.5545 36.3538 28.5233 36.3148C28.4921 36.2772 28.4766 36.2304 28.4766 36.1785V27.7521C28.4766 27.5418 28.5298 27.3899 28.6389 27.2965C28.7467 27.203 28.8792 27.1562 29.0376 27.1562H33.4146C33.4575 27.1562 33.4965 27.1692 33.5302 27.1952C33.564 27.2212 33.5939 27.2653 33.6198 27.325C33.6458 27.3847 33.6653 27.4652 33.677 27.5652C33.6874 27.6664 33.6939 27.7885 33.6939 27.9313Z" fill="white"/>
</g>
</g>
</g>
</g>
</svg>
