<svg width="22" height="23" viewBox="0 0 22 23" fill="none" xmlns="http://www.w3.org/2000/svg">
<g id="Group">
<path id="Vector" d="M11 22.4013C17.0751 22.4013 22 17.4469 22 11.3354C22 5.22389 17.0751 0.269531 11 0.269531C4.92487 0.269531 0 5.22389 0 11.3354C0 17.4469 4.92487 22.4013 11 22.4013Z" fill="#010201"/>
<g id="Group_2">
<g id="Group_3">
<path id="Vector_2" d="M8.06381 15.7777C8.07685 15.7892 8.08989 15.8023 8.10293 15.8138C8.22515 15.9007 8.31315 16.0253 8.42885 16.1187C8.79063 16.4105 9.19803 16.5695 9.66411 16.599C10.769 16.6679 11.7321 15.8318 11.8576 14.7318C11.8641 14.6777 11.8608 14.6236 11.8608 14.5695C11.8608 11.2596 11.8608 7.94963 11.8608 4.63806C11.8608 4.41511 11.8608 4.41511 12.0825 4.41511C12.5828 4.41511 13.0831 4.41511 13.5834 4.41511C13.6306 4.41511 13.6795 4.40691 13.7219 4.43642C13.7251 4.4397 13.7268 4.44134 13.73 4.44298C13.7545 4.46757 13.761 4.50035 13.7675 4.5315C13.9598 5.42333 14.4259 6.13483 15.1576 6.67255C15.2032 6.70533 15.2423 6.74796 15.2847 6.78402C15.3173 6.81189 15.3483 6.83812 15.3808 6.86599C15.4982 6.93321 15.5829 7.04141 15.6856 7.1283C16.0897 7.46765 16.5477 7.70208 17.0577 7.83323C17.1034 7.84471 17.1539 7.84471 17.1865 7.88733C17.1881 7.89061 17.1914 7.89225 17.1946 7.89389C17.224 7.92504 17.2191 7.96602 17.2191 8.00373C17.2191 8.58735 17.2207 9.17098 17.2191 9.7546C17.2191 9.88739 17.2011 9.89558 17.0675 9.89558C16.6422 9.89558 16.225 9.83821 15.8127 9.74312C15.1022 9.57918 14.4471 9.28901 13.8392 8.88736C13.8083 8.86605 13.774 8.82179 13.7398 8.83654C13.6974 8.85621 13.7186 8.91195 13.7186 8.9513C13.717 10.594 13.7251 12.2366 13.7154 13.8809C13.7088 15.0301 13.3454 16.0564 12.5974 16.9318C11.8038 17.8614 10.7951 18.4007 9.58426 18.5499C8.65048 18.6647 7.76559 18.4942 6.9247 18.0778C6.78944 18.0106 6.65907 17.9319 6.53685 17.8401C6.49937 17.8056 6.46026 17.7712 6.42115 17.7368C6.13107 17.4958 5.93063 17.1843 5.74159 16.8663C5.45151 16.3745 5.26411 15.8433 5.17285 15.2793C5.1207 14.9564 5.093 14.6318 5.11092 14.3055C5.16796 13.2531 5.51996 12.3153 6.19463 11.5038C6.76011 10.8235 7.46737 10.3481 8.30011 10.0612C8.64722 9.94149 9.00574 9.86772 9.37403 9.84149C9.44248 9.83657 9.50929 9.82017 9.57774 9.82509C9.61033 9.82673 9.64292 9.82345 9.67225 9.8464C9.67551 9.84968 9.67877 9.85132 9.68203 9.85296C9.70159 9.88575 9.6967 9.92345 9.6967 9.95788C9.6967 10.5497 9.6967 11.1432 9.6967 11.735C9.6967 11.7563 9.6967 11.7776 9.69507 11.7973C9.69181 11.8563 9.66248 11.876 9.60707 11.8612C9.44574 11.8153 9.28115 11.794 9.11492 11.7858C8.85744 11.7727 8.60322 11.8088 8.3604 11.8989C7.55048 12.1989 7.05996 12.7825 6.95729 13.6416C6.85625 14.4875 7.1887 15.1646 7.88781 15.6531C7.94811 15.6925 8.0084 15.7302 8.06381 15.7777Z" fill="white"/>
<path id="Vector_3" d="M6.54102 17.8407C6.57198 17.8325 6.58991 17.8571 6.61109 17.8702C7.13746 18.1932 7.70457 18.4047 8.31405 18.503C8.62042 18.5522 8.92843 18.5735 9.23806 18.5571C10.2729 18.503 11.2001 18.1571 12.0019 17.4899C12.7727 16.8489 13.2861 16.039 13.5419 15.0669C13.6234 14.7603 13.6674 14.4472 13.6837 14.1291C13.6935 13.9472 13.6918 13.7635 13.6918 13.5816C13.6918 12.016 13.6918 10.4503 13.6918 8.88472C13.6918 8.84866 13.6918 8.81423 13.6918 8.77816C13.7326 8.76669 13.7505 8.79784 13.7733 8.81259C14.3274 9.19457 14.9271 9.47654 15.5757 9.65688C15.9309 9.75524 16.2927 9.82081 16.661 9.8536C16.8158 9.86672 16.9706 9.86508 17.1238 9.87655C17.1906 9.88147 17.1923 9.87819 17.1939 9.8077C17.1955 9.73229 17.1939 9.65851 17.1939 9.5831C17.1939 9.05358 17.1939 8.52406 17.1939 7.9929C17.1939 7.96011 17.1955 7.92732 17.1972 7.89453C17.3357 7.91093 17.4726 7.94043 17.6127 7.95027C17.6991 7.95683 17.7855 7.96503 17.8718 7.96175C17.9142 7.96011 17.9321 7.97486 17.9272 8.01912C17.9256 8.03716 17.9272 8.05519 17.9272 8.07322C17.9272 8.83882 17.9272 9.60605 17.9272 10.3716C17.9272 10.3864 17.9272 10.4012 17.9272 10.4159C17.9256 10.4831 17.9256 10.4848 17.8555 10.4831C17.6176 10.4831 17.3797 10.4667 17.1434 10.4356C16.661 10.3717 16.1917 10.2536 15.7386 10.0749C15.3052 9.90442 14.8961 9.68802 14.5115 9.42244C14.4871 9.40605 14.4626 9.39129 14.4268 9.3667C14.4268 9.41097 14.4268 9.44211 14.4268 9.4749C14.4268 11.1487 14.4284 12.8225 14.4268 14.4947C14.4252 15.3865 14.197 16.2161 13.7228 16.9718C13.1508 17.885 12.3588 18.526 11.3517 18.8948C10.7406 19.1178 10.1066 19.2047 9.45642 19.1555C8.35968 19.0735 7.41124 18.6522 6.60294 17.9046C6.5785 17.8866 6.56057 17.862 6.54102 17.8407Z" fill="#CB1C54"/>
<path id="Vector_4" d="M13.7218 4.43551C13.6892 4.43715 13.6566 4.44043 13.624 4.44043C13.0879 4.44043 12.5518 4.44043 12.0172 4.44043C11.8934 4.44043 11.8934 4.44043 11.8934 4.56175C11.8934 7.85528 11.8934 11.1472 11.895 14.4407C11.895 14.6702 11.8787 14.8948 11.807 15.1129C11.556 15.8834 11.0411 16.3916 10.2556 16.5719C9.41309 16.7654 8.69768 16.5063 8.12731 15.8489C8.11753 15.8375 8.11101 15.8243 8.10449 15.8112C8.26746 15.8768 8.43042 15.9424 8.60316 15.9768C9.15234 16.0867 9.67057 16.0014 10.1464 15.7063C10.6972 15.3653 11.0215 14.8653 11.1356 14.2276C11.1568 14.1063 11.16 13.9833 11.16 13.8604C11.16 10.5619 11.16 7.26182 11.16 3.96337C11.16 3.80927 11.1389 3.82894 11.2904 3.82894C12.0466 3.82894 12.8027 3.82894 13.5589 3.82894C13.5768 3.82894 13.5947 3.82894 13.6126 3.82894C13.6909 3.83058 13.6909 3.83058 13.6909 3.90927C13.6892 4.08468 13.6876 4.26174 13.7218 4.43551Z" fill="#6ABAC5"/>
<path id="Vector_5" d="M9.67424 9.84605C9.21305 9.8608 8.76002 9.93457 8.32165 10.0821C7.68772 10.2936 7.12387 10.6264 6.63172 11.0821C5.98639 11.6805 5.54639 12.4051 5.3052 13.2527C5.21883 13.5543 5.16995 13.8642 5.14713 14.1773C5.13409 14.3658 5.12921 14.5544 5.14061 14.7413C5.16832 15.2642 5.27587 15.7692 5.47306 16.2544C5.69306 16.7971 6.00269 17.2823 6.4052 17.7069C6.41335 17.7151 6.41824 17.7266 6.42476 17.7364C6.3335 17.6971 6.26016 17.6299 6.18357 17.5692C5.43394 16.9708 4.90431 16.2167 4.61424 15.297C4.5132 14.9773 4.44965 14.6495 4.41869 14.315C4.39587 14.0724 4.39424 13.8298 4.40891 13.5888C4.44476 13.0314 4.57676 12.4969 4.80491 11.9871C5.04446 11.4543 5.37039 10.9821 5.78432 10.5739C6.26669 10.0985 6.82565 9.74276 7.46283 9.51161C7.86209 9.36734 8.27276 9.27882 8.69646 9.24767C9.00283 9.22472 9.30757 9.23127 9.61394 9.26898C9.65469 9.2739 9.67913 9.28209 9.67913 9.33128C9.67587 9.50505 9.67587 9.67555 9.67424 9.84605Z" fill="#6ABAC5"/>
<path id="Vector_6" d="M8.06361 15.7768C7.87783 15.6916 7.7165 15.5703 7.56983 15.4293C7.20316 15.0735 6.98479 14.6407 6.92776 14.1309C6.80879 13.062 7.47857 12.1407 8.40909 11.8554C8.80672 11.7341 9.20435 11.7292 9.60361 11.8374C9.62642 11.8439 9.64761 11.8538 9.67205 11.8472C9.68509 11.8144 9.67857 11.7816 9.67857 11.7488C9.67857 11.1505 9.67857 10.5521 9.67857 9.95372C9.67857 9.92093 9.68183 9.88814 9.68346 9.85535C9.91324 9.83896 10.1414 9.86027 10.3695 9.8865C10.4054 9.88978 10.4152 9.90781 10.4135 9.93896C10.4135 9.957 10.4135 9.97503 10.4135 9.99306C10.4135 10.7865 10.4135 11.58 10.4135 12.3718C10.4135 12.4013 10.4217 12.4308 10.4021 12.4636C10.2978 12.4439 10.1968 12.4128 10.0909 12.398C9.48138 12.3128 8.9322 12.4554 8.44983 12.8374C8.02612 13.1735 7.76539 13.6145 7.67739 14.1489C7.5845 14.7161 7.70183 15.2424 8.02613 15.7194C8.03917 15.7358 8.05057 15.7555 8.06361 15.7768Z" fill="#CB1C54"/>
<path id="Vector_7" d="M15.2885 6.78398C15.0587 6.64791 14.8582 6.47577 14.6741 6.28397C14.1787 5.77084 13.8658 5.16262 13.7322 4.45933C13.7305 4.45277 13.7322 4.44785 13.7322 4.44129C13.9457 4.42982 14.1608 4.43965 14.3742 4.43637C14.4117 4.43637 14.4297 4.45113 14.4248 4.48883C14.4231 4.50359 14.4248 4.51834 14.4248 4.5331C14.4134 5.13639 14.591 5.68723 14.8843 6.20527C14.9886 6.39052 15.1141 6.56102 15.2494 6.72496C15.264 6.74299 15.2852 6.75775 15.2885 6.78398Z" fill="#CB1C54"/>
<path id="Vector_8" d="M17.1875 7.88476C16.578 7.75361 16.0418 7.47655 15.5758 7.06015C15.5073 6.99949 15.4372 6.93883 15.3818 6.86342C15.4047 6.86178 15.4209 6.8749 15.4389 6.88473C15.8088 7.09785 16.2032 7.2372 16.6236 7.30606C16.7866 7.33393 16.9528 7.35032 17.119 7.34868C17.1891 7.34868 17.1907 7.35032 17.1907 7.41754C17.1924 7.57492 17.1891 7.73066 17.1875 7.88476Z" fill="#6ABAC5"/>
</g>
</g>
</g>
</svg>
